<?xml version="1.0" encoding="UTF-8" standalone="no"?><svg xmlns="http://www.w3.org/2000/svg" xmlns:cc="http://creativecommons.org/ns#" xmlns:dc="http://purl.org/dc/elements/1.1/" xmlns:inkscape="http://www.inkscape.org/namespaces/inkscape" xmlns:rdf="http://www.w3.org/1999/02/22-rdf-syntax-ns#" xmlns:sodipodi="http://sodipodi.sourceforge.net/DTD/sodipodi-0.dtd" xmlns:svg="http://www.w3.org/2000/svg" height="297mm" id="svg1422" inkscape:version="1.0.1 (3bc2e813f5, 2020-09-07)" sodipodi:docname="커뮤니티관리.svg" version="1.1" width="210mm">
  <metadata id="metadata1426">
    <rdf:RDF>
      <cc:Work rdf:about="">
        <dc:format>image/svg+xml</dc:format>
        <dc:type rdf:resource="http://purl.org/dc/dcmitype/StillImage"/>
        <dc:title/>
      </cc:Work>
    </rdf:RDF>
  </metadata>
  <sodipodi:namedview bordercolor="#666666" borderopacity="1" gridtolerance="10" guidetolerance="10" id="namedview1424" inkscape:current-layer="svg1422" inkscape:cx="285.99514" inkscape:cy="975.38133" inkscape:pageopacity="0" inkscape:pageshadow="2" inkscape:window-height="1027" inkscape:window-maximized="1" inkscape:window-width="1920" inkscape:window-x="-8" inkscape:window-y="-8" inkscape:zoom="0.37399252" objecttolerance="10" pagecolor="#ffffff" showgrid="false" units="mm"/>
  <defs id="defs2"/>
  <g id="g1420" transform="matrix(0.67126363,0,0,0.67126363,0.62023307,24.256102)">
    
    
    
    
    
    
    
    
    
    
    
    
    
    
    
    
    
    
    
    
    
    
    
    
    
    
    
    
    
    
    
    
    
    
    
    
    
    
    
    
    
    
    
    
    
    
    
    
    
    
    
    
    
    
    
    
    
    
    
    
    
    
    
    
    
    
    
    
    
    
    
    
    
    
    
    
    
    
    
    
    
    
    
    
    
    
    
    
    
    
    
    
    
    
    
    
    
    
    
    
    
    
    
    
    
    
    
    
    
    
    
    
    
    
    
    
    
    
    
    
    
    
    
    
    
    
    
    
    
    
    
    
    
    
    
    
    
    
    
    
    
    
    
    
    
    
    
    
    
    
    
    
    
    
    
    
    
    
    
    
    
    
    
    
    
    
    
    
    
    
    
    
    
    
    
    
    
    
    
    
    
    
    
    
    
    
    
    
    
    
    
    
    
    
    
    
    
    
    
    
    
    
    
    
    
    
    
    
    
    
    
    
    
    
    
    
    
    
    
    
    
    
    
    
    
    
    
    
    
    
    
    
    
    
    
    
    
    
    
    
    
    
    
    
    
    
    
    
    
    
    
    
    
    
    
    
    
    
    
    
    
    
    
    
    
    
    
    
    
    
    
    
    
    
    
    
    
    
    
    
    
    
    
    
    
    
    
    
    
    
    
    
    
    
    
    
    
    
    
    
    
    
    
    
    
    
    
    
    
    
    
    
    
    
    
    
    
    
    
    
    
    
    
    
    
    
    
    
    
    
    <g id="g666" transform="translate(-22,-22)">
      <rect fill="#c0c0c0" height="31" id="rect664" opacity="0.2" stroke="none" width="159" x="39" y="39"/>
    </g>
    <g id="g670" transform="translate(-22,-22)">
      <rect fill="#ffffff" height="31" id="rect668" stroke="none" width="159" x="32" y="32"/>
    </g>
    <g id="g674" transform="translate(-22,-22)">
      <path d="M 32,32 H 191 V 63 H 32 Z" fill="none" id="path672" stroke="#000000" stroke-miterlimit="10"/>
    </g>
    <g id="g682" transform="translate(-22,-22)">
      <g id="g680">
        <path d="" fill="none" id="path676" stroke="none"/>
        <text fill="#000000" font-family="Arial" font-size="18px" font-style="normal" font-weight="bold" id="text678" stroke="none" style="text-decoration:none;text-decoration-line:none" text-decoration="none" x="54.999512" y="56.5">커뮤니티 관리</text>
      </g>
    </g>
    <g id="g686" transform="translate(-22,-22)">
      <path d="m 101.81829,561.68 c 0,-4.79383 3.88584,-8.68 8.67927,-8.68 4.79343,0 8.67927,3.88617 8.67927,8.68 0,4.79383 -3.88584,8.68 -8.67927,8.68 -4.79343,0 -8.67927,-3.88617 -8.67927,-8.68 z" fill="#ee0606" id="path684" stroke="none"/>
    </g>
    <g id="g690" transform="translate(-22,-22)">
      <path d="m 101.81829,561.68 c 0,-4.79383 3.88584,-8.68 8.67927,-8.68 4.79343,0 8.67927,3.88617 8.67927,8.68 0,4.79383 -3.88584,8.68 -8.67927,8.68 -4.79343,0 -8.67927,-3.88617 -8.67927,-8.68 z" fill="none" id="path688" stroke="#000000" stroke-miterlimit="10"/>
    </g>
    <g id="g694" transform="translate(-22,-22)">
      <path d="m 110.49756,570.36 v 17.28" fill="none" id="path692" stroke="#000000" stroke-miterlimit="10"/>
    </g>
    <g id="g698" transform="translate(-22,-22)">
      <path d="m 101.30774,576.84 h 18.37964" fill="none" id="path696" stroke="#000000" stroke-miterlimit="10"/>
    </g>
    <g id="g702" transform="translate(-22,-22)">
      <path d="M 110.49756,587.64 97.733922,605" fill="none" id="path700" stroke="#000000" stroke-miterlimit="10"/>
    </g>
    <g id="g706" transform="translate(-22,-22)">
      <path d="M 110.49756,587.64 123.26119,605" fill="none" id="path704" stroke="#000000" stroke-miterlimit="10"/>
    </g>
    <g id="g714" transform="translate(-22,-22)">
      <g id="g712">
        <path d="" fill="none" id="path708" stroke="none"/>
        <text fill="#000000" font-family="Arial" font-size="13px" font-style="normal" font-weight="bold" id="text710" stroke="none" style="text-decoration:none;text-decoration-line:none" text-decoration="none" x="97.497559" y="625.5">회원</text>
      </g>
    </g>
    <g id="g722" transform="translate(-22,-22)">
      <g id="g720">
        <path d="" fill="none" id="path716" stroke="none"/>
        <text fill="#000000" font-family="Arial" font-size="13px" font-style="normal" font-weight="normal" id="text718" stroke="none" style="text-decoration:none;text-decoration-line:none" text-decoration="none" x="76.19165" y="640.5">(from Actor)</text>
      </g>
    </g>
    <g id="g726" transform="translate(-22,-22)">
      <path d="m 101.81829,1513.68 c 0,-4.7938 3.88584,-8.68 8.67927,-8.68 4.79343,0 8.67927,3.8862 8.67927,8.68 0,4.7938 -3.88584,8.68 -8.67927,8.68 -4.79343,0 -8.67927,-3.8862 -8.67927,-8.68 z" fill="#ff0000" id="path724" stroke="none"/>
    </g>
    <g id="g730" transform="translate(-22,-22)">
      <path d="m 101.81829,1513.68 c 0,-4.7938 3.88584,-8.68 8.67927,-8.68 4.79343,0 8.67927,3.8862 8.67927,8.68 0,4.7938 -3.88584,8.68 -8.67927,8.68 -4.79343,0 -8.67927,-3.8862 -8.67927,-8.68 z" fill="none" id="path728" stroke="#000000" stroke-miterlimit="10"/>
    </g>
    <g id="g734" transform="translate(-22,-22)">
      <path d="m 110.49756,1522.36 v 17.28" fill="none" id="path732" stroke="#000000" stroke-miterlimit="10"/>
    </g>
    <g id="g738" transform="translate(-22,-22)">
      <path d="m 101.30774,1528.84 h 18.37964" fill="none" id="path736" stroke="#000000" stroke-miterlimit="10"/>
    </g>
    <g id="g742" transform="translate(-22,-22)">
      <path d="M 110.49756,1539.64 97.733922,1557" fill="none" id="path740" stroke="#000000" stroke-miterlimit="10"/>
    </g>
    <g id="g746" transform="translate(-22,-22)">
      <path d="M 110.49756,1539.64 123.26119,1557" fill="none" id="path744" stroke="#000000" stroke-miterlimit="10"/>
    </g>
    <g id="g754" transform="translate(-22,-22)">
      <g id="g752">
        <path d="" fill="none" id="path748" stroke="none"/>
        <text fill="#000000" font-family="Arial" font-size="13px" font-style="normal" font-weight="bold" id="text750" stroke="none" style="text-decoration:none;text-decoration-line:none" text-decoration="none" x="90.997559" y="1577.5">관리자</text>
      </g>
    </g>
    <g id="g762" transform="translate(-22,-22)">
      <g id="g760">
        <path d="" fill="none" id="path756" stroke="none"/>
        <text fill="#000000" font-family="Arial" font-size="13px" font-style="normal" font-weight="normal" id="text758" stroke="none" style="text-decoration:none;text-decoration-line:none" text-decoration="none" x="76.19165" y="1592.5">(from Actor)</text>
      </g>
    </g>
    <g id="g766" transform="translate(-22,-22)">
      <path d="m 101.81829,169.68 c 0,-4.79383 3.88584,-8.68 8.67927,-8.68 4.79343,0 8.67927,3.88617 8.67927,8.68 0,4.79383 -3.88584,8.68 -8.67927,8.68 -4.79343,0 -8.67927,-3.88617 -8.67927,-8.68 z" fill="#f20404" id="path764" stroke="none"/>
    </g>
    <g id="g770" transform="translate(-22,-22)">
      <path d="m 101.81829,169.68 c 0,-4.79383 3.88584,-8.68 8.67927,-8.68 4.79343,0 8.67927,3.88617 8.67927,8.68 0,4.79383 -3.88584,8.68 -8.67927,8.68 -4.79343,0 -8.67927,-3.88617 -8.67927,-8.68 z" fill="none" id="path768" stroke="#000000" stroke-miterlimit="10"/>
    </g>
    <g id="g774" transform="translate(-22,-22)">
      <path d="m 110.49756,178.36 v 17.28" fill="none" id="path772" stroke="#000000" stroke-miterlimit="10"/>
    </g>
    <g id="g778" transform="translate(-22,-22)">
      <path d="m 101.30774,184.84 h 18.37964" fill="none" id="path776" stroke="#000000" stroke-miterlimit="10"/>
    </g>
    <g id="g782" transform="translate(-22,-22)">
      <path d="M 110.49756,195.64 97.733922,213" fill="none" id="path780" stroke="#000000" stroke-miterlimit="10"/>
    </g>
    <g id="g786" transform="translate(-22,-22)">
      <path d="M 110.49756,195.64 123.26119,213" fill="none" id="path784" stroke="#000000" stroke-miterlimit="10"/>
    </g>
    <g id="g794" transform="translate(-22,-22)">
      <g id="g792">
        <path d="" fill="none" id="path788" stroke="none"/>
        <text fill="#000000" font-family="Arial" font-size="13px" font-style="normal" font-weight="bold" id="text790" stroke="none" style="text-decoration:none;text-decoration-line:none" text-decoration="none" x="90.997559" y="233.5">비회원</text>
      </g>
    </g>
    <g id="g802" transform="translate(-22,-22)">
      <g id="g800">
        <path d="" fill="none" id="path796" stroke="none"/>
        <text fill="#000000" font-family="Arial" font-size="13px" font-style="normal" font-weight="normal" id="text798" stroke="none" style="text-decoration:none;text-decoration-line:none" text-decoration="none" x="76.19165" y="248.5">(from Actor)</text>
      </g>
    </g>
    <g id="g806" transform="translate(-22,-22)">
      <path d="m 635,525 c 0,-13.25484 39.84665,-24 89,-24 49.15335,0 89,10.74516 89,24 0,13.25484 -39.84665,24 -89,24 -49.15335,0 -89,-10.74516 -89,-24 z" fill="#c0c0c0" id="path804" opacity="0.2" stroke="none"/>
    </g>
    <g id="g810" transform="translate(-22,-22)">
      <path d="m 628,518 c 0,-13.25484 39.84665,-24 89,-24 49.15335,0 89,10.74516 89,24 0,13.25484 -39.84665,24 -89,24 -49.15335,0 -89,-10.74516 -89,-24 z" fill="#ffffff" id="path808" stroke="none"/>
    </g>
    <g id="g814" transform="translate(-22,-22)">
      <path d="m 628,518 c 0,-13.25484 39.84665,-24 89,-24 49.15335,0 89,10.74516 89,24 0,13.25484 -39.84665,24 -89,24 -49.15335,0 -89,-10.74516 -89,-24 z" fill="none" id="path812" stroke="#000000" stroke-miterlimit="10"/>
    </g>
    <g id="g822" transform="translate(-22,-22)">
      <g id="g820">
        <path d="" fill="none" id="path816" stroke="none"/>
        <text fill="#000000" font-family="Arial" font-size="13px" font-style="normal" font-weight="bold" id="text818" stroke="none" style="text-decoration:none;text-decoration-line:none" text-decoration="none" x="668.24683" y="525">기록 &amp; 계정 검색</text>
      </g>
    </g>
    <g id="g826" transform="translate(-22,-22)">
      <path d="m 635,1127 c 0,-13.2548 39.84665,-24 89,-24 49.15335,0 89,10.7452 89,24 0,13.2548 -39.84665,24 -89,24 -49.15335,0 -89,-10.7452 -89,-24 z" fill="#c0c0c0" id="path824" opacity="0.2" stroke="none"/>
    </g>
    <g id="g830" transform="translate(-22,-22)">
      <path d="m 628,1120 c 0,-13.2548 39.84665,-24 89,-24 49.15335,0 89,10.7452 89,24 0,13.2548 -39.84665,24 -89,24 -49.15335,0 -89,-10.7452 -89,-24 z" fill="#ffffff" id="path828" stroke="none"/>
    </g>
    <g id="g834" transform="translate(-22,-22)">
      <path d="m 628,1120 c 0,-13.2548 39.84665,-24 89,-24 49.15335,0 89,10.7452 89,24 0,13.2548 -39.84665,24 -89,24 -49.15335,0 -89,-10.7452 -89,-24 z" fill="none" id="path832" stroke="#000000" stroke-miterlimit="10"/>
    </g>
    <g id="g842" transform="translate(-22,-22)">
      <g id="g840">
        <path d="" fill="none" id="path836" stroke="none"/>
        <text fill="#000000" font-family="Arial" font-size="13px" font-style="normal" font-weight="bold" id="text838" stroke="none" style="text-decoration:none;text-decoration-line:none" text-decoration="none" x="704" y="1127">신고</text>
      </g>
    </g>
    <g id="g846" transform="translate(-22,-22)">
      <path d="m 635,1471 c 0,-13.2548 39.84665,-24 89,-24 49.15335,0 89,10.7452 89,24 0,13.2548 -39.84665,24 -89,24 -49.15335,0 -89,-10.7452 -89,-24 z" fill="#c0c0c0" id="path844" opacity="0.2" stroke="none"/>
    </g>
    <g id="g850" transform="translate(-22,-22)">
      <path d="m 628,1464 c 0,-13.2548 39.84665,-24 89,-24 49.15335,0 89,10.7452 89,24 0,13.2548 -39.84665,24 -89,24 -49.15335,0 -89,-10.7452 -89,-24 z" fill="#ffffff" id="path848" stroke="none"/>
    </g>
    <g id="g854" transform="translate(-22,-22)">
      <path d="m 628,1464 c 0,-13.2548 39.84665,-24 89,-24 49.15335,0 89,10.7452 89,24 0,13.2548 -39.84665,24 -89,24 -49.15335,0 -89,-10.7452 -89,-24 z" fill="none" id="path852" stroke="#000000" stroke-miterlimit="10"/>
    </g>
    <g id="g862" transform="translate(-22,-22)">
      <g id="g860">
        <path d="" fill="none" id="path856" stroke="none"/>
        <text fill="#000000" font-family="Arial" font-size="13px" font-style="normal" font-weight="bold" id="text858" stroke="none" style="text-decoration:none;text-decoration-line:none" text-decoration="none" x="689.19409" y="1471">도장 찍기</text>
      </g>
    </g>
    <g id="g866" transform="translate(-22,-22)">
      <path d="m 635,783 c 0,-13.25484 39.84665,-24 89,-24 49.15335,0 89,10.74516 89,24 0,13.25484 -39.84665,24 -89,24 -49.15335,0 -89,-10.74516 -89,-24 z" fill="#c0c0c0" id="path864" opacity="0.2" stroke="none"/>
    </g>
    <g id="g870" transform="translate(-22,-22)">
      <path d="m 628,776 c 0,-13.25484 39.84665,-24 89,-24 49.15335,0 89,10.74516 89,24 0,13.25484 -39.84665,24 -89,24 -49.15335,0 -89,-10.74516 -89,-24 z" fill="#ffffff" id="path868" stroke="none"/>
    </g>
    <g id="g874" transform="translate(-22,-22)">
      <path d="m 628,776 c 0,-13.25484 39.84665,-24 89,-24 49.15335,0 89,10.74516 89,24 0,13.25484 -39.84665,24 -89,24 -49.15335,0 -89,-10.74516 -89,-24 z" fill="none" id="path872" stroke="#000000" stroke-miterlimit="10"/>
    </g>
    <g id="g882" transform="translate(-22,-22)">
      <g id="g880">
        <path d="" fill="none" id="path876" stroke="none"/>
        <text fill="#000000" font-family="Arial" font-size="13px" font-style="normal" font-weight="bold" id="text878" stroke="none" style="text-decoration:none;text-decoration-line:none" text-decoration="none" x="682.69409" y="783">게시글 수정</text>
      </g>
    </g>
    <g id="g886" transform="translate(-22,-22)">
      <path d="m 635,697 c 0,-13.25484 39.84665,-24 89,-24 49.15335,0 89,10.74516 89,24 0,13.25484 -39.84665,24 -89,24 -49.15335,0 -89,-10.74516 -89,-24 z" fill="#c0c0c0" id="path884" opacity="0.2" stroke="none"/>
    </g>
    <g id="g890" transform="translate(-22,-22)">
      <path d="m 628,690 c 0,-13.25484 39.84665,-24 89,-24 49.15335,0 89,10.74516 89,24 0,13.25484 -39.84665,24 -89,24 -49.15335,0 -89,-10.74516 -89,-24 z" fill="#ffffff" id="path888" stroke="none"/>
    </g>
    <g id="g894" transform="translate(-22,-22)">
      <path d="m 628,690 c 0,-13.25484 39.84665,-24 89,-24 49.15335,0 89,10.74516 89,24 0,13.25484 -39.84665,24 -89,24 -49.15335,0 -89,-10.74516 -89,-24 z" fill="none" id="path892" stroke="#000000" stroke-miterlimit="10"/>
    </g>
    <g id="g902" transform="translate(-22,-22)">
      <g id="g900">
        <path d="" fill="none" id="path896" stroke="none"/>
        <text fill="#000000" font-family="Arial" font-size="13px" font-style="normal" font-weight="bold" id="text898" stroke="none" style="text-decoration:none;text-decoration-line:none" text-decoration="none" x="682.69409" y="697">게시글 삭제</text>
      </g>
    </g>
    <g id="g906" transform="translate(-22,-22)">
      <path d="m 635,869 c 0,-13.25484 39.84665,-24 89,-24 49.15335,0 89,10.74516 89,24 0,13.25484 -39.84665,24 -89,24 -49.15335,0 -89,-10.74516 -89,-24 z" fill="#c0c0c0" id="path904" opacity="0.2" stroke="none"/>
    </g>
    <g id="g910" transform="translate(-22,-22)">
      <path d="m 628,862 c 0,-13.25484 39.84665,-24 89,-24 49.15335,0 89,10.74516 89,24 0,13.25484 -39.84665,24 -89,24 -49.15335,0 -89,-10.74516 -89,-24 z" fill="#ffffff" id="path908" stroke="none"/>
    </g>
    <g id="g914" transform="translate(-22,-22)">
      <path d="m 628,862 c 0,-13.25484 39.84665,-24 89,-24 49.15335,0 89,10.74516 89,24 0,13.25484 -39.84665,24 -89,24 -49.15335,0 -89,-10.74516 -89,-24 z" fill="none" id="path912" stroke="#000000" stroke-miterlimit="10"/>
    </g>
    <g id="g922" transform="translate(-22,-22)">
      <g id="g920">
        <path d="" fill="none" id="path916" stroke="none"/>
        <text fill="#000000" font-family="Arial" font-size="13px" font-style="normal" font-weight="bold" id="text918" stroke="none" style="text-decoration:none;text-decoration-line:none" text-decoration="none" x="689.19409" y="869">댓글 작성</text>
      </g>
    </g>
    <g id="g926" transform="translate(-22,-22)">
      <path d="m 635,1041 c 0,-13.2548 39.84665,-24 89,-24 49.15335,0 89,10.7452 89,24 0,13.2548 -39.84665,24 -89,24 -49.15335,0 -89,-10.7452 -89,-24 z" fill="#c0c0c0" id="path924" opacity="0.2" stroke="none"/>
    </g>
    <g id="g930" transform="translate(-22,-22)">
      <path d="m 628,1034 c 0,-13.2548 39.84665,-24 89,-24 49.15335,0 89,10.7452 89,24 0,13.2548 -39.84665,24 -89,24 -49.15335,0 -89,-10.7452 -89,-24 z" fill="#ffffff" id="path928" stroke="none"/>
    </g>
    <g id="g934" transform="translate(-22,-22)">
      <path d="m 628,1034 c 0,-13.2548 39.84665,-24 89,-24 49.15335,0 89,10.7452 89,24 0,13.2548 -39.84665,24 -89,24 -49.15335,0 -89,-10.7452 -89,-24 z" fill="none" id="path932" stroke="#000000" stroke-miterlimit="10"/>
    </g>
    <g id="g942" transform="translate(-22,-22)">
      <g id="g940">
        <path d="" fill="none" id="path936" stroke="none"/>
        <text fill="#000000" font-family="Arial" font-size="13px" font-style="normal" font-weight="bold" id="text938" stroke="none" style="text-decoration:none;text-decoration-line:none" text-decoration="none" x="689.19409" y="1041">댓글 삭제</text>
      </g>
    </g>
    <g id="g946" transform="translate(-22,-22)">
      <path d="m 635,611 c 0,-13.25484 39.84665,-24 89,-24 49.15335,0 89,10.74516 89,24 0,13.25484 -39.84665,24 -89,24 -49.15335,0 -89,-10.74516 -89,-24 z" fill="#c0c0c0" id="path944" opacity="0.2" stroke="none"/>
    </g>
    <g id="g950" transform="translate(-22,-22)">
      <path d="m 628,604 c 0,-13.25484 39.84665,-24 89,-24 49.15335,0 89,10.74516 89,24 0,13.25484 -39.84665,24 -89,24 -49.15335,0 -89,-10.74516 -89,-24 z" fill="#ffffff" id="path948" stroke="none"/>
    </g>
    <g id="g954" transform="translate(-22,-22)">
      <path d="m 628,604 c 0,-13.25484 39.84665,-24 89,-24 49.15335,0 89,10.74516 89,24 0,13.25484 -39.84665,24 -89,24 -49.15335,0 -89,-10.74516 -89,-24 z" fill="none" id="path952" stroke="#000000" stroke-miterlimit="10"/>
    </g>
    <g id="g962" transform="translate(-22,-22)">
      <g id="g960">
        <path d="" fill="none" id="path956" stroke="none"/>
        <text fill="#000000" font-family="Arial" font-size="13px" font-style="normal" font-weight="bold" id="text958" stroke="none" style="text-decoration:none;text-decoration-line:none" text-decoration="none" x="682.69409" y="611">게시글 등록</text>
      </g>
    </g>
    <g id="g966" transform="translate(-22,-22)">
      <path d="m 635,1213 c 0,-13.2548 39.84665,-24 89,-24 49.15335,0 89,10.7452 89,24 0,13.2548 -39.84665,24 -89,24 -49.15335,0 -89,-10.7452 -89,-24 z" fill="#c0c0c0" id="path964" opacity="0.2" stroke="none"/>
    </g>
    <g id="g970" transform="translate(-22,-22)">
      <path d="m 628,1206 c 0,-13.2548 39.84665,-24 89,-24 49.15335,0 89,10.7452 89,24 0,13.2548 -39.84665,24 -89,24 -49.15335,0 -89,-10.7452 -89,-24 z" fill="#ffffff" id="path968" stroke="none"/>
    </g>
    <g id="g974" transform="translate(-22,-22)">
      <path d="m 628,1206 c 0,-13.2548 39.84665,-24 89,-24 49.15335,0 89,10.7452 89,24 0,13.2548 -39.84665,24 -89,24 -49.15335,0 -89,-10.7452 -89,-24 z" fill="none" id="path972" stroke="#000000" stroke-miterlimit="10"/>
    </g>
    <g id="g982" transform="translate(-22,-22)">
      <g id="g980">
        <path d="" fill="none" id="path976" stroke="none"/>
        <text fill="#000000" font-family="Arial" font-size="13px" font-style="normal" font-weight="bold" id="text978" stroke="none" style="text-decoration:none;text-decoration-line:none" text-decoration="none" x="697.5" y="1213">북마크</text>
      </g>
    </g>
    <g id="g986" transform="translate(-22,-22)">
      <path d="m 635,1299 c 0,-13.2548 39.84665,-24 89,-24 49.15335,0 89,10.7452 89,24 0,13.2548 -39.84665,24 -89,24 -49.15335,0 -89,-10.7452 -89,-24 z" fill="#c0c0c0" id="path984" opacity="0.2" stroke="none"/>
    </g>
    <g id="g990" transform="translate(-22,-22)">
      <path d="m 628,1292 c 0,-13.2548 39.84665,-24 89,-24 49.15335,0 89,10.7452 89,24 0,13.2548 -39.84665,24 -89,24 -49.15335,0 -89,-10.7452 -89,-24 z" fill="#ffffff" id="path988" stroke="none"/>
    </g>
    <g id="g994" transform="translate(-22,-22)">
      <path d="m 628,1292 c 0,-13.2548 39.84665,-24 89,-24 49.15335,0 89,10.7452 89,24 0,13.2548 -39.84665,24 -89,24 -49.15335,0 -89,-10.7452 -89,-24 z" fill="none" id="path992" stroke="#000000" stroke-miterlimit="10"/>
    </g>
    <g id="g1002" transform="translate(-22,-22)">
      <g id="g1000">
        <path d="" fill="none" id="path996" stroke="none"/>
        <text fill="#000000" font-family="Arial" font-size="13px" font-style="normal" font-weight="bold" id="text998" stroke="none" style="text-decoration:none;text-decoration-line:none" text-decoration="none" x="697.5" y="1299">스크랩</text>
      </g>
    </g>
    <g id="g1006" transform="translate(-22,-22)">
      <path d="m 635,1385 c 0,-13.2548 39.84665,-24 89,-24 49.15335,0 89,10.7452 89,24 0,13.2548 -39.84665,24 -89,24 -49.15335,0 -89,-10.7452 -89,-24 z" fill="#c0c0c0" id="path1004" opacity="0.2" stroke="none"/>
    </g>
    <g id="g1010" transform="translate(-22,-22)">
      <path d="m 628,1378 c 0,-13.2548 39.84665,-24 89,-24 49.15335,0 89,10.7452 89,24 0,13.2548 -39.84665,24 -89,24 -49.15335,0 -89,-10.7452 -89,-24 z" fill="#ffffff" id="path1008" stroke="none"/>
    </g>
    <g id="g1014" transform="translate(-22,-22)">
      <path d="m 628,1378 c 0,-13.2548 39.84665,-24 89,-24 49.15335,0 89,10.7452 89,24 0,13.2548 -39.84665,24 -89,24 -49.15335,0 -89,-10.7452 -89,-24 z" fill="none" id="path1012" stroke="#000000" stroke-miterlimit="10"/>
    </g>
    <g id="g1022" transform="translate(-22,-22)">
      <g id="g1020">
        <path d="" fill="none" id="path1016" stroke="none"/>
        <text fill="#000000" font-family="Arial" font-size="13px" font-style="normal" font-weight="bold" id="text1018" stroke="none" style="text-decoration:none;text-decoration-line:none" text-decoration="none" x="704" y="1385">구독</text>
      </g>
    </g>
    <g id="g1026" transform="translate(-22,-22)">
      <path d="m 635,955 c 0,-13.25484 39.84665,-24 89,-24 49.15335,0 89,10.74516 89,24 0,13.25484 -39.84665,24 -89,24 -49.15335,0 -89,-10.74516 -89,-24 z" fill="#c0c0c0" id="path1024" opacity="0.2" stroke="none"/>
    </g>
    <g id="g1030" transform="translate(-22,-22)">
      <path d="m 628,948 c 0,-13.25484 39.84665,-24 89,-24 49.15335,0 89,10.74516 89,24 0,13.25484 -39.84665,24 -89,24 -49.15335,0 -89,-10.74516 -89,-24 z" fill="#ffffff" id="path1028" stroke="none"/>
    </g>
    <g id="g1034" transform="translate(-22,-22)">
      <path d="m 628,948 c 0,-13.25484 39.84665,-24 89,-24 49.15335,0 89,10.74516 89,24 0,13.25484 -39.84665,24 -89,24 -49.15335,0 -89,-10.74516 -89,-24 z" fill="none" id="path1032" stroke="#000000" stroke-miterlimit="10"/>
    </g>
    <g id="g1042" transform="translate(-22,-22)">
      <g id="g1040">
        <path d="" fill="none" id="path1036" stroke="none"/>
        <text fill="#000000" font-family="Arial" font-size="13px" font-style="normal" font-weight="bold" id="text1038" stroke="none" style="text-decoration:none;text-decoration-line:none" text-decoration="none" x="689.19409" y="955">댓글 수정</text>
      </g>
    </g>
    <g id="g1046" transform="translate(-22,-22)">
      <path d="m 1117.7797,1556.23 c 0,-6.2022 4.9652,-11.23 11.0902,-11.23 6.1249,0 11.0902,5.0278 11.0902,11.23 0,6.2022 -4.9653,11.23 -11.0902,11.23 -6.125,0 -11.0902,-5.0278 -11.0902,-11.23 z" fill="#ffffff" id="path1044" stroke="none"/>
    </g>
    <g id="g1050" transform="translate(-22,-22)">
      <path d="m 1117.7797,1556.23 c 0,-6.2022 4.9652,-11.23 11.0902,-11.23 6.1249,0 11.0902,5.0278 11.0902,11.23 0,6.2022 -4.9653,11.23 -11.0902,11.23 -6.125,0 -11.0902,-5.0278 -11.0902,-11.23 z" fill="none" id="path1048" stroke="#000000" stroke-miterlimit="10"/>
    </g>
    <g id="g1054" transform="translate(-22,-22)">
      <path d="m 1128.8699,1567.46 v 22.08" fill="none" id="path1052" stroke="#000000" stroke-miterlimit="10"/>
    </g>
    <g id="g1058" transform="translate(-22,-22)">
      <path d="m 1117.1273,1575.74 h 23.4851" fill="none" id="path1056" stroke="#000000" stroke-miterlimit="10"/>
    </g>
    <g id="g1062" transform="translate(-22,-22)">
      <path d="M 1128.8699,1589.54 1112.5608,1612" fill="none" id="path1060" stroke="#000000" stroke-miterlimit="10"/>
    </g>
    <g id="g1066" transform="translate(-22,-22)">
      <path d="M 1128.8699,1589.54 1145.179,1612" fill="none" id="path1064" stroke="#000000" stroke-miterlimit="10"/>
    </g>
    <g id="g1074" transform="translate(-22,-22)">
      <g id="g1072">
        <path d="" fill="none" id="path1068" stroke="none"/>
        <text fill="#000000" font-family="Arial" font-size="13px" font-style="normal" font-weight="bold" id="text1070" stroke="none" style="text-decoration:none;text-decoration-line:none" text-decoration="none" x="1071.0872" y="1632.5">문화데이터광장 API</text>
      </g>
    </g>
    <g id="g1078" transform="translate(-22,-22)">
      <path d="m 1117.7797,1428.23 c 0,-6.2022 4.9652,-11.23 11.0902,-11.23 6.1249,0 11.0902,5.0278 11.0902,11.23 0,6.2022 -4.9653,11.23 -11.0902,11.23 -6.125,0 -11.0902,-5.0278 -11.0902,-11.23 z" fill="#ffffff" id="path1076" stroke="none"/>
    </g>
    <g id="g1082" transform="translate(-22,-22)">
      <path d="m 1117.7797,1428.23 c 0,-6.2022 4.9652,-11.23 11.0902,-11.23 6.1249,0 11.0902,5.0278 11.0902,11.23 0,6.2022 -4.9653,11.23 -11.0902,11.23 -6.125,0 -11.0902,-5.0278 -11.0902,-11.23 z" fill="none" id="path1080" stroke="#000000" stroke-miterlimit="10"/>
    </g>
    <g id="g1086" transform="translate(-22,-22)">
      <path d="m 1128.8699,1439.46 v 22.08" fill="none" id="path1084" stroke="#000000" stroke-miterlimit="10"/>
    </g>
    <g id="g1090" transform="translate(-22,-22)">
      <path d="m 1117.1273,1447.74 h 23.4851" fill="none" id="path1088" stroke="#000000" stroke-miterlimit="10"/>
    </g>
    <g id="g1094" transform="translate(-22,-22)">
      <path d="M 1128.8699,1461.54 1112.5608,1484" fill="none" id="path1092" stroke="#000000" stroke-miterlimit="10"/>
    </g>
    <g id="g1098" transform="translate(-22,-22)">
      <path d="M 1128.8699,1461.54 1145.179,1484" fill="none" id="path1096" stroke="#000000" stroke-miterlimit="10"/>
    </g>
    <g id="g1106" transform="translate(-22,-22)">
      <g id="g1104">
        <path d="" fill="none" id="path1100" stroke="none"/>
        <text fill="#000000" font-family="Arial" font-size="13px" font-style="normal" font-weight="bold" id="text1102" stroke="none" style="text-decoration:none;text-decoration-line:none" text-decoration="none" x="1076.2351" y="1504.5">Google Vision API</text>
      </g>
    </g>
    <g id="g1110" transform="translate(-22,-22)">
      <path d="m 798,1489 267,83" fill="none" id="path1108" stroke="#000000" stroke-miterlimit="10"/>
    </g>
    <g id="g1114" transform="translate(-22,-22)">
      <path d="M 1054.0458,1573.003 1065,1572 l -8.455,-7.0366" fill="none" id="path1112" stroke="#000000" stroke-miterlimit="10"/>
    </g>
    <g id="g1118" transform="translate(-22,-22)">
      <path d="m 807,1464 258,-1" fill="none" id="path1116" stroke="#000000" stroke-miterlimit="10"/>
    </g>
    <g id="g1122" transform="translate(-22,-22)">
      <path d="M 1054.8537,1467.2489 1065,1463 l -10.1789,-4.1701" fill="none" id="path1120" stroke="#000000" stroke-miterlimit="10"/>
    </g>
    <g id="g1126" transform="translate(-22,-22)">
      <path d="m 635,1557 c 0,-13.2548 39.84665,-24 89,-24 49.15335,0 89,10.7452 89,24 0,13.2548 -39.84665,24 -89,24 -49.15335,0 -89,-10.7452 -89,-24 z" fill="#c0c0c0" id="path1124" opacity="0.2" stroke="none"/>
    </g>
    <g id="g1130" transform="translate(-22,-22)">
      <path d="m 628,1550 c 0,-13.2548 39.84665,-24 89,-24 49.15335,0 89,10.7452 89,24 0,13.2548 -39.84665,24 -89,24 -49.15335,0 -89,-10.7452 -89,-24 z" fill="#ffffff" id="path1128" stroke="none"/>
    </g>
    <g id="g1134" transform="translate(-22,-22)">
      <path d="m 628,1550 c 0,-13.2548 39.84665,-24 89,-24 49.15335,0 89,10.7452 89,24 0,13.2548 -39.84665,24 -89,24 -49.15335,0 -89,-10.7452 -89,-24 z" fill="none" id="path1132" stroke="#000000" stroke-miterlimit="10"/>
    </g>
    <g id="g1142" transform="translate(-22,-22)">
      <g id="g1140">
        <path d="" fill="none" id="path1136" stroke="none"/>
        <text fill="#000000" font-family="Arial" font-size="13px" font-style="normal" font-weight="bold" id="text1138" stroke="none" style="text-decoration:none;text-decoration-line:none" text-decoration="none" x="680.88818" y="1557">신고 글 삭제</text>
      </g>
    </g>
    <g id="g1146" transform="translate(-22,-22)">
      <path d="m 635,95 c 0,-13.254835 40.07051,-24 89.5,-24 49.42949,0 89.5,10.745165 89.5,24 0,13.25484 -40.07051,24 -89.5,24 C 675.07051,119 635,108.25484 635,95 Z" fill="#c0c0c0" id="path1144" opacity="0.2" stroke="none"/>
    </g>
    <g id="g1150" transform="translate(-22,-22)">
      <path d="m 628,88 c 0,-13.254835 40.07051,-24 89.5,-24 49.42949,0 89.5,10.745165 89.5,24 0,13.25484 -40.07051,24 -89.5,24 C 668.07051,112 628,101.25484 628,88 Z" fill="#ffffff" id="path1148" stroke="none"/>
    </g>
    <g id="g1154" transform="translate(-22,-22)">
      <path d="m 628,88 c 0,-13.254835 40.07051,-24 89.5,-24 49.42949,0 89.5,10.745165 89.5,24 0,13.25484 -40.07051,24 -89.5,24 C 668.07051,112 628,101.25484 628,88 Z" fill="none" id="path1152" stroke="#000000" stroke-miterlimit="10"/>
    </g>
    <g id="g1162" transform="translate(-22,-22)">
      <g id="g1160">
        <path d="" fill="none" id="path1156" stroke="none"/>
        <text fill="#000000" font-family="Arial" font-size="13px" font-style="normal" font-weight="bold" id="text1158" stroke="none" style="text-decoration:none;text-decoration-line:none" text-decoration="none" x="660.08228" y="95">게시글 목록 및 조회</text>
      </g>
    </g>
    <g id="g1166" transform="translate(-22,-22)">
      <path d="M 152,199 627,106" fill="none" id="path1164" stroke="#000000" stroke-miterlimit="10"/>
    </g>
    <g id="g1170" transform="translate(-22,-22)">
      <path d="M 617.83551,112.08375 627,106 616.21786,103.82159" fill="none" id="path1168" stroke="#000000" stroke-miterlimit="10"/>
    </g>
    <g id="g1174" transform="translate(-22,-22)">
      <path d="M 152,229 668,493" fill="none" id="path1172" stroke="#000000" stroke-miterlimit="10"/>
    </g>
    <g id="g1178" transform="translate(-22,-22)">
      <path d="M 657.03536,492.11866 668,493 l -7.12997,-8.37637" fill="none" id="path1176" stroke="#000000" stroke-miterlimit="10"/>
    </g>
    <g id="g1182" transform="translate(-22,-22)">
      <path d="m 152,599 475,4" fill="none" id="path1180" stroke="#000000" stroke-miterlimit="10"/>
    </g>
    <g id="g1186" transform="translate(-22,-22)">
      <path d="M 616.80224,607.12379 627,603 616.87313,598.70505" fill="none" id="path1184" stroke="#000000" stroke-miterlimit="10"/>
    </g>
    <g id="g1190" transform="translate(-22,-22)">
      <path d="m 152,605 475,72" fill="none" id="path1188" stroke="#000000" stroke-miterlimit="10"/>
    </g>
    <g id="g1194" transform="translate(-22,-22)">
      <path d="M 616.32123,679.63893 627,677 l -9.41703,-5.68503" fill="none" id="path1192" stroke="#000000" stroke-miterlimit="10"/>
    </g>
    <g id="g1198" transform="translate(-22,-22)">
      <path d="M 152,611 631,751" fill="none" id="path1196" stroke="#000000" stroke-miterlimit="10"/>
    </g>
    <g id="g1202" transform="translate(-22,-22)">
      <path d="M 620.0645,752.18945 631,751 l -8.57364,-6.8915" fill="none" id="path1200" stroke="#000000" stroke-miterlimit="10"/>
    </g>
    <g id="g1206" transform="translate(-22,-22)">
      <path d="M 152,617 659,837" fill="none" id="path1204" stroke="#000000" stroke-miterlimit="10"/>
    </g>
    <g id="g1210" transform="translate(-22,-22)">
      <path d="M 648.00154,836.81623 659,837 l -7.64715,-7.90703" fill="none" id="path1208" stroke="#000000" stroke-miterlimit="10"/>
    </g>
    <g id="g1214" transform="translate(-22,-22)">
      <path d="M 152,623 674,923" fill="none" id="path1212" stroke="#000000" stroke-miterlimit="10"/>
    </g>
    <g id="g1218" transform="translate(-22,-22)">
      <path d="M 663.09128,921.58581 674,923 l -6.71365,-8.71361" fill="none" id="path1216" stroke="#000000" stroke-miterlimit="10"/>
    </g>
    <g id="g1222" transform="translate(-22,-22)">
      <path d="m 152,629 530,380" fill="none" id="path1220" stroke="#000000" stroke-miterlimit="10"/>
    </g>
    <g id="g1226" transform="translate(-22,-22)">
      <path d="M 671.288,1006.4994 682,1009 l -5.80633,-9.34273" fill="none" id="path1224" stroke="#000000" stroke-miterlimit="10"/>
    </g>
    <g id="g1230" transform="translate(-22,-22)">
      <path d="m 152,635 536,460" fill="none" id="path1228" stroke="#000000" stroke-miterlimit="10"/>
    </g>
    <g id="g1234" transform="translate(-22,-22)">
      <path d="M 677.54651,1091.5759 688,1095 l -4.97053,-9.8129" fill="none" id="path1232" stroke="#000000" stroke-miterlimit="10"/>
    </g>
    <g id="g1238" transform="translate(-22,-22)">
      <path d="m 152,641 540,540" fill="none" id="path1236" stroke="#000000" stroke-miterlimit="10"/>
    </g>
    <g id="g1242" transform="translate(-22,-22)">
      <path d="M 681.83733,1176.7905 692,1181 l -4.20952,-10.1627" fill="none" id="path1240" stroke="#000000" stroke-miterlimit="10"/>
    </g>
    <g id="g1246" transform="translate(-22,-22)">
      <path d="m 152,647 543,620" fill="none" id="path1244" stroke="#000000" stroke-miterlimit="10"/>
    </g>
    <g id="g1250" transform="translate(-22,-22)">
      <path d="M 685.13762,1262.1283 695,1267 l -3.52894,-10.4186" fill="none" id="path1248" stroke="#000000" stroke-miterlimit="10"/>
    </g>
    <g id="g1254" transform="translate(-22,-22)">
      <path d="m 147,647 551,706" fill="none" id="path1252" stroke="#000000" stroke-miterlimit="10"/>
    </g>
    <g id="g1258" transform="translate(-22,-22)">
      <path d="M 688.42889,1347.5784 698,1353 l -2.93414,-10.6015" fill="none" id="path1256" stroke="#000000" stroke-miterlimit="10"/>
    </g>
    <g id="g1262" transform="translate(-22,-22)">
      <path d="m 144,647 555,792" fill="none" id="path1260" stroke="#000000" stroke-miterlimit="10"/>
    </g>
    <g id="g1266" transform="translate(-22,-22)">
      <path d="M 689.72051,1433.0931 699,1439 l -2.3848,-10.7384" fill="none" id="path1264" stroke="#000000" stroke-miterlimit="10"/>
    </g>
    <g id="g1270" transform="translate(-22,-22)">
      <path d="m 152,1551 475,-1" fill="none" id="path1268" stroke="#000000" stroke-miterlimit="10"/>
    </g>
    <g id="g1274" transform="translate(-22,-22)">
      <path d="M 616.84621,1554.2309 627,1550 l -10.17151,-4.1881" fill="none" id="path1272" stroke="#000000" stroke-miterlimit="10"/>
    </g>
    <g id="g1278" transform="translate(-22,-22)">
      <path d="M 110,1503 V 647" fill="none" id="path1276" stroke="#000000" stroke-miterlimit="10"/>
    </g>
    <g id="g1282" transform="translate(-22,-22)">
      <path d="M 118.41904,667.32535 110,647 l -8.41904,20.32535" fill="#ffffff" id="path1280" stroke="none"/>
    </g>
    <g id="g1286" transform="translate(-22,-22)">
      <path d="M 118.41904,667.32535 110,647 l -8.41904,20.32535 h 16.83808" fill="none" id="path1284" stroke="#000000" stroke-miterlimit="10"/>
    </g>
    <g id="g1290" transform="translate(-22,-22)">
      <path d="M 110,551 V 255" fill="none" id="path1288" stroke="#000000" stroke-miterlimit="10"/>
    </g>
    <g id="g1294" transform="translate(-22,-22)">
      <path d="M 118.41904,275.32535 110,255 l -8.41904,20.32535" fill="#ffffff" id="path1292" stroke="none"/>
    </g>
    <g id="g1298" transform="translate(-22,-22)">
      <path d="M 118.41904,275.32535 110,255 l -8.41904,20.32535 h 16.83808" fill="none" id="path1296" stroke="#000000" stroke-miterlimit="10"/>
    </g>
    <g id="g1302" transform="translate(-22,-22)">
      <path d="m 635,181 c 0,-13.25484 39.84665,-24 89,-24 49.15335,0 89,10.74516 89,24 0,13.25484 -39.84665,24 -89,24 -49.15335,0 -89,-10.74516 -89,-24 z" fill="#c0c0c0" id="path1300" opacity="0.2" stroke="none"/>
    </g>
    <g id="g1306" transform="translate(-22,-22)">
      <path d="m 628,174 c 0,-13.25484 39.84665,-24 89,-24 49.15335,0 89,10.74516 89,24 0,13.25484 -39.84665,24 -89,24 -49.15335,0 -89,-10.74516 -89,-24 z" fill="#ffffff" id="path1304" stroke="none"/>
    </g>
    <g id="g1310" transform="translate(-22,-22)">
      <path d="m 628,174 c 0,-13.25484 39.84665,-24 89,-24 49.15335,0 89,10.74516 89,24 0,13.25484 -39.84665,24 -89,24 -49.15335,0 -89,-10.74516 -89,-24 z" fill="none" id="path1308" stroke="#000000" stroke-miterlimit="10"/>
    </g>
    <g id="g1318" transform="translate(-22,-22)">
      <g id="g1316">
        <path d="" fill="none" id="path1312" stroke="none"/>
        <text fill="#000000" font-family="Arial" font-size="11px" font-style="normal" font-weight="bold" id="text1314" stroke="none" style="text-decoration:none;text-decoration-line:none" text-decoration="none" x="665.9585" y="180">인기 해시태그 Top10</text>
      </g>
    </g>
    <g id="g1322" transform="translate(-22,-22)">
      <path d="m 635,267 c 0,-13.25484 44.77152,-24 100,-24 55.22848,0 100,10.74516 100,24 0,13.25484 -44.77152,24 -100,24 -55.22848,0 -100,-10.74516 -100,-24 z" fill="#c0c0c0" id="path1320" opacity="0.2" stroke="none"/>
    </g>
    <g id="g1326" transform="translate(-22,-22)">
      <path d="m 628,260 c 0,-13.25484 44.77152,-24 100,-24 55.22848,0 100,10.74516 100,24 0,13.25484 -44.77152,24 -100,24 -55.22848,0 -100,-10.74516 -100,-24 z" fill="#ffffff" id="path1324" stroke="none"/>
    </g>
    <g id="g1330" transform="translate(-22,-22)">
      <path d="m 628,260 c 0,-13.25484 44.77152,-24 100,-24 55.22848,0 100,10.74516 100,24 0,13.25484 -44.77152,24 -100,24 -55.22848,0 -100,-10.74516 -100,-24 z" fill="none" id="path1328" stroke="#000000" stroke-miterlimit="10"/>
    </g>
    <g id="g1338" transform="translate(-22,-22)">
      <g id="g1336">
        <path d="" fill="none" id="path1332" stroke="none"/>
        <text fill="#000000" font-family="Arial" font-size="11px" font-style="normal" font-weight="bold" id="text1334" stroke="none" style="text-decoration:none;text-decoration-line:none" text-decoration="none" x="664.43042" y="266">북마크가 많은 기록 Top10</text>
      </g>
    </g>
    <g id="g1342" transform="translate(-22,-22)">
      <path d="m 635,353 c 0,-13.25484 39.84665,-24 89,-24 49.15335,0 89,10.74516 89,24 0,13.25484 -39.84665,24 -89,24 -49.15335,0 -89,-10.74516 -89,-24 z" fill="#c0c0c0" id="path1340" opacity="0.2" stroke="none"/>
    </g>
    <g id="g1346" transform="translate(-22,-22)">
      <path d="m 628,346 c 0,-13.25484 39.84665,-24 89,-24 49.15335,0 89,10.74516 89,24 0,13.25484 -39.84665,24 -89,24 -49.15335,0 -89,-10.74516 -89,-24 z" fill="#ffffff" id="path1344" stroke="none"/>
    </g>
    <g id="g1350" transform="translate(-22,-22)">
      <path d="m 628,346 c 0,-13.25484 39.84665,-24 89,-24 49.15335,0 89,10.74516 89,24 0,13.25484 -39.84665,24 -89,24 -49.15335,0 -89,-10.74516 -89,-24 z" fill="none" id="path1348" stroke="#000000" stroke-miterlimit="10"/>
    </g>
    <g id="g1358" transform="translate(-22,-22)">
      <g id="g1356">
        <path d="" fill="none" id="path1352" stroke="none"/>
        <text fill="#000000" font-family="Arial" font-size="11px" font-style="normal" font-weight="bold" id="text1354" stroke="none" style="text-decoration:none;text-decoration-line:none" text-decoration="none" x="665.9585" y="352">구독자수 랭킹 Top10</text>
      </g>
    </g>
    <g id="g1362" transform="translate(-22,-22)">
      <path d="M 152,205 627,179" fill="none" id="path1360" stroke="#000000" stroke-miterlimit="10"/>
    </g>
    <g id="g1366" transform="translate(-22,-22)">
      <path d="M 617.08259,183.75867 627,179 616.62244,175.35222" fill="none" id="path1364" stroke="#000000" stroke-miterlimit="10"/>
    </g>
    <g id="g1370" transform="translate(-22,-22)">
      <path d="m 152,211 475,40" fill="none" id="path1368" stroke="#000000" stroke-miterlimit="10"/>
    </g>
    <g id="g1374" transform="translate(-22,-22)">
      <path d="M 616.51993,254.34189 627,251 l -9.7736,-5.04746" fill="none" id="path1372" stroke="#000000" stroke-miterlimit="10"/>
    </g>
    <g id="g1378" transform="translate(-22,-22)">
      <path d="M 152,217 627,325" fill="none" id="path1376" stroke="#000000" stroke-miterlimit="10"/>
    </g>
    <g id="g1382" transform="translate(-22,-22)">
      <path d="M 616.15696,326.85159 627,325 l -8.97646,-6.35792" fill="none" id="path1380" stroke="#000000" stroke-miterlimit="10"/>
    </g>
    <g id="g1386" transform="translate(-22,-22)">
      <path d="m 141,647 560,878" fill="none" id="path1384" stroke="#000000" stroke-miterlimit="10"/>
    </g>
    <g id="g1390" transform="translate(-22,-22)">
      <path d="M 691.986,1518.6954 701,1525 l -1.91585,-10.8319" fill="none" id="path1388" stroke="#000000" stroke-miterlimit="10"/>
    </g>
    <g id="g1394" transform="translate(-22,-22)">
      <path d="m 635,439 c 0,-13.25484 39.84665,-24 89,-24 49.15335,0 89,10.74516 89,24 0,13.25484 -39.84665,24 -89,24 -49.15335,0 -89,-10.74516 -89,-24 z" fill="#c0c0c0" id="path1392" opacity="0.2" stroke="none"/>
    </g>
    <g id="g1398" transform="translate(-22,-22)">
      <path d="m 628,432 c 0,-13.25484 39.84665,-24 89,-24 49.15335,0 89,10.74516 89,24 0,13.25484 -39.84665,24 -89,24 -49.15335,0 -89,-10.74516 -89,-24 z" fill="#ffffff" id="path1396" stroke="none"/>
    </g>
    <g id="g1402" transform="translate(-22,-22)">
      <path d="m 628,432 c 0,-13.25484 39.84665,-24 89,-24 49.15335,0 89,10.74516 89,24 0,13.25484 -39.84665,24 -89,24 -49.15335,0 -89,-10.74516 -89,-24 z" fill="none" id="path1400" stroke="#000000" stroke-miterlimit="10"/>
    </g>
    <g id="g1410" transform="translate(-22,-22)">
      <g id="g1408">
        <path d="" fill="none" id="path1404" stroke="none"/>
        <text fill="#000000" font-family="Arial" font-size="13px" font-style="normal" font-weight="bold" id="text1406" stroke="none" style="text-decoration:none;text-decoration-line:none" text-decoration="none" x="674.38818" y="439">공개 기록 목록</text>
      </g>
    </g>
    <g id="g1414" transform="translate(-22,-22)">
      <path d="M 152,223 650,407" fill="none" id="path1412" stroke="#000000" stroke-miterlimit="10"/>
    </g>
    <g id="g1418" transform="translate(-22,-22)">
      <path d="M 639.00827,407.42646 650,407 l -8.07388,-7.47078" fill="none" id="path1416" stroke="#000000" stroke-miterlimit="10"/>
    </g>
  </g>
</svg>